<svg width="25" height="24" viewBox="0 0 25 24" fill="none" xmlns="http://www.w3.org/2000/svg">
<g clip-path="url(#clip0_2132_1024)">
<path d="M12.5 0C5.8724 0 0.5 5.3724 0.5 12C0.5 18.6276 5.8724 24 12.5 24C19.1276 24 24.5 18.6276 24.5 12C24.5 5.3724 19.1276 0 12.5 0Z" fill="url(#paint0_linear_2132_1024)"/>
<path d="M14.2285 16.8573H17.4851L17.9966 13.5492H14.2285V11.7409C14.2285 10.3668 14.6778 9.14813 15.9632 9.14813H18.0287V6.2615C17.6657 6.21243 16.8981 6.10547 15.4479 6.10547C12.4191 6.10547 10.6435 7.70481 10.6435 11.349V13.5498H7.52979V16.858H10.6429V25.9507C11.2595 26.0426 11.8843 26.1055 12.5254 26.1055C13.1048 26.1055 13.6705 26.0526 14.2285 25.9771V16.8573Z" fill="white"/>
</g>
<defs>
<linearGradient id="paint0_linear_2132_1024" x1="4.0958" y1="3.5958" x2="22.469" y2="21.969" gradientUnits="userSpaceOnUse">
<stop stop-color="#2AA4F4"/>
<stop offset="1" stop-color="#007AD9"/>
</linearGradient>
<clipPath id="clip0_2132_1024">
<rect width="24" height="24" fill="white" transform="translate(0.5)"/>
</clipPath>
</defs>
</svg>
