<svg width="25" height="24" viewBox="0 0 25 24" fill="none" xmlns="http://www.w3.org/2000/svg">
<rect x="0.5" width="24" height="24" rx="12" fill="white"/>
<g clip-path="url(#clip0_2124_3198)">
<path d="M20.4916 12.1558C20.4916 11.473 20.4372 10.9747 20.3194 10.458H12.6594V13.5399H17.1556C17.065 14.3058 16.5755 15.4593 15.4877 16.2343L15.4724 16.3375L17.8944 18.2474L18.0622 18.2644C19.6032 16.8157 20.4916 14.6842 20.4916 12.1558Z" fill="#4285F4"/>
<path d="M12.6594 20.2765C14.8622 20.2765 16.7114 19.5383 18.0622 18.2649L15.4877 16.2348C14.7988 16.7239 13.8741 17.0653 12.6594 17.0653C10.5019 17.0653 8.67082 15.6166 8.01807 13.6143L7.9224 13.6225L5.40403 15.6064L5.37109 15.6996C6.71271 18.4125 9.46849 20.2765 12.6594 20.2765Z" fill="#3D843C"/>
<path d="M8.01818 13.6139C7.84594 13.0972 7.74627 12.5435 7.74627 11.9714C7.74627 11.3993 7.84594 10.8457 8.00911 10.329L8.00455 10.2189L5.45463 8.20312L5.3712 8.24352C4.81826 9.36928 4.50098 10.6335 4.50098 11.9714C4.50098 13.3094 4.81826 14.5735 5.3712 15.6993L8.01818 13.6139Z" fill="#FACC15"/>
<path d="M12.6594 6.87812C14.1914 6.87812 15.2248 7.55172 15.814 8.11464L18.1165 5.82622C16.7024 4.48824 14.8622 3.66699 12.6594 3.66699C9.46848 3.66699 6.71271 5.53092 5.37109 8.24377L8.00901 10.3292C8.67082 8.32685 10.5019 6.87812 12.6594 6.87812Z" fill="#E53935"/>
</g>
<defs>
<clipPath id="clip0_2124_3198">
<rect width="16" height="16.6667" fill="white" transform="translate(4.5 3.66699)"/>
</clipPath>
</defs>
</svg>
